HIERARCHY
ROOT Hips
{
	OFFSET 0.000000 35.082581 0.000000
	CHANNELS 6 Xposition Yposition Zposition Xrotation Yrotation Zrotation 
	JOINT Spine
	{
		OFFSET 0.000000 6.876099 0.125700
		CHANNELS 3 Xrotation Yrotation Zrotation
		JOINT Spine1
		{
			OFFSET 0.000000 5.730043 0.104720
			CHANNELS 3 Xrotation Yrotation Zrotation
			JOINT Spine1_split
			{
				OFFSET 0.000000 5.730043 0.104720
				CHANNELS 3 Xrotation Yrotation Zrotation
				JOINT Spine2
				{
					OFFSET 0.000000 5.730043 0.104720
					CHANNELS 3 Xrotation Yrotation Zrotation
					JOINT Neck
					{
						OFFSET 0.000000 10.314075 0.188496
						CHANNELS 3 Xrotation Yrotation Zrotation
						JOINT Head
						{
							OFFSET 0.000000 7.643700 -2.377400
							CHANNELS 3 Xrotation Yrotation Zrotation
							JOINT HeadTop_End
							{
								OFFSET 0.000000 43.788605 -13.619600
								CHANNELS 3 Xrotation Yrotation Zrotation
								End Site
								{
									OFFSET 0.000000 0.000000 0.000000
								}
							}
						}
					}
					JOINT LeftShoulder
					{
						OFFSET 2.196100 4.412489 0.087492
						CHANNELS 3 Xrotation Yrotation Zrotation
						JOINT LeftShoulder_split
						{
							OFFSET 2.196100 4.412489 0.087492
							CHANNELS 3 Xrotation Yrotation Zrotation
							JOINT LeftArm
							{
								OFFSET 8.771219 -2.981674 -0.026999
								CHANNELS 3 Xrotation Yrotation Zrotation
								JOINT LeftForeArm
								{
									OFFSET 8.512804 0.000000 -0.000000
									CHANNELS 3 Xrotation Yrotation Zrotation
									JOINT LeftHand
									{
										OFFSET 18.484802 0.000000 -0.000000
										CHANNELS 3 Xrotation Yrotation Zrotation
										JOINT LeftHandThumb1
										{
											OFFSET 2.499420 -1.158070 2.653252
											CHANNELS 3 Xrotation Yrotation Zrotation
											JOINT LeftHandThumb2
											{
												OFFSET 2.370079 -1.368366 1.368366
												CHANNELS 3 Xrotation Yrotation Zrotation
												JOINT LeftHandThumb3
												{
													OFFSET 2.676727 -1.545410 1.545409
													CHANNELS 3 Xrotation Yrotation Zrotation
													JOINT LeftHandThumb4
													{
														OFFSET 1.692226 -0.977005 0.977007
														CHANNELS 3 Xrotation Yrotation Zrotation
														End Site
														{
															OFFSET 0.000000 0.000000 0.000000
														}
													}
												}
											}
										}
										JOINT LeftHandIndex1
										{
											OFFSET 7.924831 -0.457527 2.345128
											CHANNELS 3 Xrotation Yrotation Zrotation
											JOINT LeftHandIndex2
											{
												OFFSET 3.643303 0.000000 0.000000
												CHANNELS 3 Xrotation Yrotation Zrotation
												JOINT LeftHandIndex3
												{
													OFFSET 3.810799 0.000000 0.000000
													CHANNELS 3 Xrotation Yrotation Zrotation
													JOINT LeftHandIndex4
													{
														OFFSET 2.403702 0.000000 0.000000
														CHANNELS 3 Xrotation Yrotation Zrotation
														End Site
														{
															OFFSET 0.000000 0.000000 0.000000
														}
													}
												}
											}
										}
										JOINT LeftHandMiddle1
										{
											OFFSET 8.563995 0.000000 -0.000000
											CHANNELS 3 Xrotation Yrotation Zrotation
											JOINT LeftHandMiddle2
											{
												OFFSET 3.861618 0.000000 0.000000
												CHANNELS 3 Xrotation Yrotation Zrotation
												JOINT LeftHandMiddle3
												{
													OFFSET 3.701603 0.000000 0.000000
													CHANNELS 3 Xrotation Yrotation Zrotation
													JOINT LeftHandMiddle4
													{
														OFFSET 2.322544 0.000000 0.000000
														CHANNELS 3 Xrotation Yrotation Zrotation
														End Site
														{
															OFFSET 0.000000 0.000000 0.000000
														}
													}
												}
											}
										}
										JOINT LeftHandRing1
										{
											OFFSET 8.426460 -0.424637 -3.286992
											CHANNELS 3 Xrotation Yrotation Zrotation
											JOINT LeftHandRing2
											{
												OFFSET 3.126408 0.000000 0.000000
												CHANNELS 3 Xrotation Yrotation Zrotation
												JOINT LeftHandRing3
												{
													OFFSET 3.085026 0.000000 0.000000
													CHANNELS 3 Xrotation Yrotation Zrotation
													JOINT LeftHandRing4
													{
														OFFSET 1.644005 0.000000 0.000000
														CHANNELS 3 Xrotation Yrotation Zrotation
														End Site
														{
															OFFSET 0.000000 0.000000 0.000000
														}
													}
												}
											}
										}
									}
								}
							}
						}
					}
					JOINT RightShoulder
					{
						OFFSET -2.196100 4.412496 0.070690
						CHANNELS 3 Xrotation Yrotation Zrotation
						JOINT RightShoulder_split
						{
							OFFSET -2.196100 4.412496 0.070690
							CHANNELS 3 Xrotation Yrotation Zrotation
							JOINT RightArm
							{
								OFFSET -8.771282 -2.981682 -0.094208
								CHANNELS 3 Xrotation Yrotation Zrotation
								JOINT RightForeArm
								{
									OFFSET -8.494598 0.000000 0.000000
									CHANNELS 3 Xrotation Yrotation Zrotation
									JOINT RightHand
									{
										OFFSET -18.483803 0.000000 0.000001
										CHANNELS 3 Xrotation Yrotation Zrotation
										JOINT RightHandThumb1
										{
											OFFSET -2.527351 -1.008072 2.575253
											CHANNELS 3 Xrotation Yrotation Zrotation
											JOINT RightHandThumb2
											{
												OFFSET -2.321518 -1.340328 1.340329
												CHANNELS 3 Xrotation Yrotation Zrotation
												JOINT RightHandThumb3
												{
													OFFSET -2.657753 -1.534454 1.534455
													CHANNELS 3 Xrotation Yrotation Zrotation
													JOINT RightHandThumb4
													{
														OFFSET -1.807510 -1.043568 1.043567
														CHANNELS 3 Xrotation Yrotation Zrotation
														End Site
														{
															OFFSET 0.000000 0.000000 0.000000
														}
													}
												}
											}
										}
										JOINT RightHandIndex1
										{
											OFFSET -8.811420 0.015533 2.887987
											CHANNELS 3 Xrotation Yrotation Zrotation
											JOINT RightHandIndex2
											{
												OFFSET -3.537502 0.000000 0.000000
												CHANNELS 3 Xrotation Yrotation Zrotation
												JOINT RightHandIndex3
												{
													OFFSET -3.356201 0.000000 0.000000
													CHANNELS 3 Xrotation Yrotation Zrotation
													JOINT RightHandIndex4
													{
														OFFSET -1.933098 0.000000 0.000000
														CHANNELS 3 Xrotation Yrotation Zrotation
														End Site
														{
															OFFSET 0.000000 0.000000 0.000000
														}
													}
												}
											}
										}
										JOINT RightHandMiddle1
										{
											OFFSET -8.178135 0.000000 0.000000
											CHANNELS 3 Xrotation Yrotation Zrotation
											JOINT RightHandMiddle2
											{
												OFFSET -3.901302 0.000000 0.000000
												CHANNELS 3 Xrotation Yrotation Zrotation
												JOINT RightHandMiddle3
												{
													OFFSET -3.909599 0.000000 0.000000
													CHANNELS 3 Xrotation Yrotation Zrotation
													JOINT RightHandMiddle4
													{
														OFFSET -2.376003 0.000000 0.000000
														CHANNELS 3 Xrotation Yrotation Zrotation
														End Site
														{
															OFFSET 0.000000 0.000000 0.000000
														}
													}
												}
											}
										}
										JOINT RightHandRing1
										{
											OFFSET -7.559013 0.014137 -2.865403
											CHANNELS 3 Xrotation Yrotation Zrotation
											JOINT RightHandRing2
											{
												OFFSET -3.449306 0.000000 0.000000
												CHANNELS 3 Xrotation Yrotation Zrotation
												JOINT RightHandRing3
												{
													OFFSET -3.362106 0.000000 0.000000
													CHANNELS 3 Xrotation Yrotation Zrotation
													JOINT RightHandRing4
													{
														OFFSET -2.076401 0.000000 0.000000
														CHANNELS 3 Xrotation Yrotation Zrotation
														End Site
														{
															OFFSET 0.000000 0.000000 0.000000
														}
													}
												}
											}
										}
									}
								}
							}
						}
					}
				}
			}
		}
	}
	JOINT LeftUpLeg
	{
		OFFSET 10.205400 -3.823500 0.155100
		CHANNELS 3 Xrotation Yrotation Zrotation
		JOINT LeftLeg
		{
			OFFSET 0.708757 -12.982077 0.567790
			CHANNELS 3 Xrotation Yrotation Zrotation
			JOINT LeftFoot
			{
				OFFSET -0.708756 -10.717838 -2.184338
				CHANNELS 3 Xrotation Yrotation Zrotation
				JOINT LeftToeBase
				{
					OFFSET 0.108149 -7.191104 7.560241
					CHANNELS 3 Xrotation Yrotation Zrotation
					JOINT LeftToe_End
					{
						OFFSET 0.070230 0.081724 4.490308
						CHANNELS 3 Xrotation Yrotation Zrotation
						End Site
						{
							OFFSET 0.000000 0.000000 0.000000
						}
					}
				}
			}
		}
	}
	JOINT RightUpLeg
	{
		OFFSET -10.205400 -3.823500 0.005500
		CHANNELS 3 Xrotation Yrotation Zrotation
		JOINT RightLeg
		{
			OFFSET -0.708756 -12.982134 0.610632
			CHANNELS 3 Xrotation Yrotation Zrotation
			JOINT RightFoot
			{
				OFFSET 0.708754 -10.717769 -1.945823
				CHANNELS 3 Xrotation Yrotation Zrotation
				JOINT RightToeBase
				{
					OFFSET -0.108140 -7.191069 7.372968
					CHANNELS 3 Xrotation Yrotation Zrotation
					JOINT RightToe_End
					{
						OFFSET -0.070227 0.081735 4.479403
						CHANNELS 3 Xrotation Yrotation Zrotation
						End Site
						{
							OFFSET 0.000000 0.000000 0.000000
						}
					}
				}
			}
		}
	}
}
MOTION
Frames: 4
Frame Time: 0.016667
0.092685 33.773464 -0.761829 -4.120609 -1.656887 0.450456 3.457414 1.688183 -2.305920 0.710881 0.526838 -0.263051 0.000000 0.000000 0.000000 0.710199 0.523097 -0.267070 2.609734 -0.754816 0.156819 18.950508 -7.303244 0.624142 -0.000001 -0.000000 0.000000 2.730605 -4.471838 -12.384145 0.000000 0.000000 0.000000 -6.603780 -10.273102 -60.669169 -0.000013 -16.775184 -0.000012 21.485712 -10.082279 -12.336706 3.397823 -6.557755 3.595399 15.353579 21.247761 9.263491 -12.577512 5.210860 15.704475 -0.000006 0.000001 -0.000001 -1.222350 -0.461780 -28.262346 0.291713 1.827318 -18.139058 0.038969 0.675380 -6.605504 0.000001 -0.000002 -0.000001 0.095121 4.196364 -33.991198 0.439510 2.228205 -22.314289 0.188190 1.474431 -14.546787 0.000002 -0.000003 -0.000006 5.761693 10.460355 -44.834526 0.435447 2.218274 -22.209381 0.278396 1.786180 -17.716899 0.000000 0.000004 -0.000001 1.996590 1.476386 14.937916 0.000000 0.000000 0.000000 -2.025624 7.814287 63.299967 -0.000017 12.108138 0.000015 6.522657 12.381285 10.265038 -1.352781 9.111913 0.370100 17.058293 -29.721008 -6.078641 -13.949256 -13.457324 -16.103942 0.000002 0.000001 0.000002 -1.823893 1.946420 21.104000 0.341692 -1.752634 22.062553 0.059810 -0.744764 9.182106 -0.000002 0.000001 0.000001 -0.809698 -1.799958 27.787967 0.365847 -1.811054 22.839210 0.241656 -1.482173 18.519418 -0.000002 0.000000 0.000001 2.161605 -6.996774 31.854609 0.441458 -1.980940 25.124412 0.360397 -1.798069 22.666266 -0.000001 0.000001 0.000002 -4.103204 7.618286 7.994272 22.591259 7.901299 -0.348216 -12.393880 6.544487 -8.957024 0.926581 0.000011 0.000002 0.000000 -0.000002 0.000000 -0.202913 -8.992597 -9.334194 23.291783 -7.383863 3.296882 -16.940203 -6.476994 7.316978 -1.455117 0.000006 0.000001 0.000000 0.000003 0.000000 
0.051562 33.754581 -0.847909 -4.300557 -1.278732 0.545626 3.646504 1.875773 -2.254451 0.742683 0.579923 -0.240280 0.000000 0.000000 0.000000 0.742192 0.575776 -0.244851 2.557503 -0.815733 0.156847 18.874456 -7.890825 0.747875 -0.000001 0.000001 -0.000000 2.723276 -4.477279 -12.342095 0.000000 0.000000 0.000000 -6.439329 -9.530066 -60.740019 0.000012 -16.130154 0.000011 22.222844 -9.762254 -12.288145 3.397820 -6.557758 3.595402 15.386461 21.304729 9.230584 -12.471121 5.306289 15.630412 -0.000004 0.000006 -0.000000 -1.171242 -0.431673 -28.161500 0.297617 1.845215 -18.323156 0.038475 0.671138 -6.563847 0.000002 0.000003 -0.000001 0.117131 4.248509 -34.358648 0.437363 2.222934 -22.258675 0.191507 1.487122 -14.674996 0.000000 -0.000003 -0.000000 5.785870 10.499929 -44.722702 0.442102 2.234465 -22.380450 0.289763 1.821371 -18.077941 -0.000000 0.000003 0.000001 1.997865 1.678055 14.926730 0.000000 0.000000 0.000000 -2.716036 8.083338 63.101973 0.000002 12.576857 0.000005 6.347676 12.451765 10.578704 -1.352780 9.111909 0.370101 17.109398 -29.778238 -6.033842 -14.027967 -13.265821 -16.227572 0.000002 0.000000 -0.000000 -1.914901 1.926755 21.734833 0.354120 -1.782950 22.465044 0.063678 -0.768294 9.474929 0.000002 -0.000000 -0.000001 -0.822226 -1.866069 28.591681 0.378290 -1.840316 23.229962 0.247117 -1.498393 18.729553 0.000002 0.000002 -0.000000 2.205345 -6.995213 32.676509 0.453283 -2.005944 25.464246 0.365919 -1.811196 22.841068 0.000001 -0.000001 0.000001 -4.471125 7.545041 8.024108 23.050005 7.914542 -0.305107 -12.550872 6.166135 -8.989767 1.064041 -0.000008 -0.000001 0.000000 0.000002 -0.000000 -0.250825 -8.876934 -9.146658 23.890755 -7.425788 3.023921 -17.289644 -7.001286 7.352423 -1.459418 0.000020 0.000002 -0.000000 0.000001 -0.000000 
0.014193 33.739548 -0.931253 -4.505622 -0.940847 0.630021 3.851086 2.077482 -2.194323 0.779252 0.636650 -0.214313 0.000000 0.000000 0.000000 0.779022 0.632011 -0.219524 2.504434 -0.875464 0.156875 18.776644 -8.477597 0.864273 -0.000000 -0.000000 -0.000000 2.725930 -4.533559 -12.333787 0.000000 0.000000 0.000000 -6.245862 -8.768378 -60.756589 -0.000001 -15.406542 0.000001 22.884380 -9.466689 -12.270928 3.397828 -6.557759 3.595402 15.418046 21.359221 9.199029 -12.299724 5.460039 15.504546 -0.000001 0.000000 0.000001 -1.119847 -0.397988 -28.078604 0.305165 1.867846 -18.556285 0.038948 0.675215 -6.603852 -0.000001 0.000001 0.000001 0.143345 4.310982 -34.824266 0.439418 2.227989 -22.312097 0.191177 1.485841 -14.661915 0.000001 0.000001 0.000000 5.850535 10.548852 -44.833567 0.441423 2.232820 -22.363014 0.304838 1.866883 -18.546354 0.000001 0.000004 0.000001 1.997986 1.881701 14.910747 0.000000 0.000000 0.000000 -3.306481 8.365079 62.900756 0.000004 13.174786 -0.000023 6.023911 12.660642 11.096662 -1.352782 9.111913 0.370101 17.154660 -29.828792 -5.994222 -14.108551 -13.068063 -16.356715 -0.000000 0.000000 0.000003 -1.992517 1.916385 22.233608 0.366418 -1.812386 22.856902 0.067871 -0.793063 9.783463 0.000003 -0.000001 0.000001 -0.836432 -1.925787 29.374591 0.391628 -1.871068 23.641706 0.253026 -1.515681 18.953990 0.000001 -0.000001 0.000001 2.254779 -7.003500 33.488684 0.465568 -2.031492 25.812494 0.371878 -1.825298 23.029407 0.000001 -0.000003 -0.000002 -4.757096 7.472253 8.037034 23.432974 7.928189 -0.242713 -12.675466 5.825904 -9.026830 1.061978 0.000001 0.000000 0.000000 0.000000 -0.000000 -0.238698 -8.807665 -8.997545 24.374780 -7.459344 2.820885 -17.565787 -7.435945 7.362890 -1.463729 0.000007 -0.000001 -0.000000 0.000002 -0.000000 
-0.020338 33.727547 -1.011130 -4.717584 -0.611052 0.702144 4.046395 2.265619 -2.119279 0.816892 0.688822 -0.187654 0.000000 0.000000 0.000000 0.816969 0.683690 -0.193515 2.454511 -0.931647 0.156904 18.669866 -9.033303 0.984025 0.000002 0.000000 -0.000000 2.731421 -4.597785 -12.332024 0.000000 0.000000 0.000000 -6.033525 -7.976571 -60.769238 0.000012 -14.615920 0.000030 23.498361 -9.138157 -12.293595 3.397826 -6.557753 3.595402 15.448433 21.411516 9.168653 -12.005070 5.721978 15.280877 -0.000004 -0.000001 -0.000001 -1.062542 -0.357055 -28.005070 0.313264 1.891796 -18.803195 0.039995 0.684159 -6.691641 -0.000000 -0.000001 0.000000 0.172057 4.377151 -35.317481 0.443997 2.239087 -22.429269 0.188449 1.475414 -14.556859 0.000000 0.000001 -0.000001 5.951430 10.614518 -45.075389 0.435982 2.219564 -22.222854 0.323249 1.920847 -19.103173 -0.000001 -0.000000 0.000001 2.000280 2.088534 14.902366 0.000000 0.000000 0.000000 -3.800155 8.674494 62.681151 -0.000019 13.889296 0.000007 5.628993 13.001802 11.760472 -1.352779 9.111908 0.370101 17.142388 -29.817259 -6.000204 -14.180468 -12.896281 -16.481042 0.000001 0.000002 -0.000000 -2.046330 1.896128 22.639890 0.378263 -1.840220 23.228787 0.072308 -0.818327 10.098199 0.000000 0.000001 -0.000000 -0.864204 -1.957216 30.119451 0.405468 -1.902332 24.061744 0.259411 -1.534113 19.193776 -0.000002 0.000001 0.000003 2.313607 -7.025333 34.301862 0.478637 -2.058269 26.178729 0.378251 -1.840230 23.228838 0.000001 -0.000000 -0.000002 -5.010436 7.399189 8.054522 23.775494 7.940600 -0.176480 -12.777616 5.486008 -9.064745 1.059929 0.000009 -0.000001 0.000000 0.000000 0.000000 -0.166550 -8.790155 -8.878810 24.742208 -7.481403 2.692056 -17.782766 -7.807117 7.339633 -1.468039 0.000011 -0.000002 0.000000 -0.000001 -0.000000 
